<svg width="238" height="36" viewBox="0 0 238 36" fill="none" xmlns="http://www.w3.org/2000/svg">
<path d="M2.728 13.692C4.278 13.816 8.556 14.622 13.299 16.637C16.802 11.212 19.871 5.57 22.258 0.392999L22.289 0.362H22.351V0.299999C22.661 0.0209984 23.622 0.733998 23.405 1.075L23.343 1.168H23.312C23.281 1.726 23.25 2.315 23.25 2.873C23.25 7.182 24.149 11.584 25.451 18.28C28.21 17.97 32.085 17.412 32.581 17.381C32.705 17.257 32.426 17.97 32.085 18.218C31.403 18.683 27.962 19.055 25.637 19.241C26.381 22.682 27.218 25.782 28.148 29.254C28.21 29.471 27.466 30.153 27.156 29.657C24.645 25.286 21.08 21.504 17.236 19.458L17.143 19.427C15.624 19.396 14.26 19.334 12.958 19.241C7.409 27.208 4.805 30.029 2.356 29.285C2.108 29.037 2.077 28.727 2.387 28.758C4.991 28.975 8.37 23.922 11.625 19.148C4.712 18.497 1.364 17.009 0.527 15.769C0.279 15.428 0.186 15.087 0.186 14.777C0.186 14.25 0.496 13.816 1.085 13.723C1.55 13.63 2.077 13.63 2.728 13.692ZM17.143 18.528C18.817 18.59 21.39 18.435 24.304 18.373H24.335C23.25 13.599 22.041 6.5 22.103 3.152C19.902 8.143 17.67 11.646 14.725 16.699L14.415 17.133C15.314 17.567 16.244 18.032 17.143 18.528ZM1.364 15.304C1.953 16.358 7.099 17.815 12.214 18.249L12.896 17.226C8.184 15.118 4.526 14.622 3.162 14.467C2.759 14.405 0.93 14.343 1.364 15.304ZM24.087 19.334C22.01 19.365 20.15 19.489 18.755 19.489C21.235 21.07 23.622 23.023 25.606 25.441L26.35 26.34C25.699 23.953 25.079 21.659 24.552 19.334H24.087ZM15.314 18.373L14.012 17.722C13.888 17.939 13.733 18.156 13.578 18.342C14.167 18.373 14.756 18.373 15.314 18.373ZM28.3214 35.392C26.3064 34.617 24.8184 32.695 24.8184 30.463C24.9734 27.332 28.6624 23.705 32.9714 21.07L34.0564 20.481C34.0254 18.993 33.9634 18.218 33.8704 17.071L33.7774 17.164C33.4674 17.474 32.6304 18.404 32.1964 18.621C32.0414 18.683 31.2354 18.776 31.6074 18.187C32.1034 17.505 33.8084 15.149 33.7154 15.242C33.9944 14.994 34.7694 15.459 34.7694 15.862C34.8004 15.924 35.0174 17.381 35.0794 19.954C36.2264 19.396 39.4814 18.342 40.1634 18.714C40.4734 18.869 40.2874 19.148 40.0394 19.21C38.8304 19.551 37.5594 20.047 36.2884 20.636L35.1414 21.225L35.1724 22.093V23.271C35.1724 24.48 35.1414 25.72 35.0794 26.96C34.7384 31.269 33.6224 35.795 30.2434 35.795C29.6854 35.795 29.0654 35.671 28.3214 35.392ZM34.0254 26.402C34.0564 25.1 34.1184 23.767 34.0874 22.527L34.0564 21.845L33.8704 21.938C29.6544 24.511 26.0584 28.076 25.8724 30.99C25.8724 32.478 26.7404 33.997 28.2284 34.555C28.7554 34.741 29.1584 34.834 29.5924 34.834C32.3514 34.834 33.6224 31.083 34.0254 26.402ZM33.9014 13.847C33.6534 13.661 33.4674 13.351 33.5604 13.196C33.5914 13.103 33.7774 12.638 33.7774 11.925C33.8394 11.708 34.1184 11.646 34.3974 11.801C34.7384 11.956 34.9554 12.235 34.9554 12.452C34.9554 12.762 34.8934 13.599 34.6454 13.909C34.5524 14.064 34.2424 14.064 33.9014 13.847ZM39.9147 20.853C39.5427 20.45 39.3567 19.489 39.3567 18.466C39.3567 17.35 39.5737 16.172 39.9457 15.614C39.9767 15.459 40.2867 15.428 40.6587 15.521C40.9997 15.645 41.1857 15.893 41.1547 16.048C40.9997 16.203 40.6897 17.784 40.6277 18.962C40.5967 19.737 40.5967 20.977 41.7127 20.884C44.2857 20.667 46.9207 11.863 47.1687 10.685L47.2617 10.189C44.2857 10.437 41.5577 10.654 38.7367 11.119C38.1477 11.212 37.4967 10.406 38.0237 10.282C40.4417 9.848 42.8907 9.569 47.4477 9.228C47.8197 7.027 47.9127 6.841 48.2847 4.981C48.2847 4.485 49.5247 4.826 49.4317 5.477C49.1837 6.221 48.9977 7.306 48.8117 9.135C51.3847 8.949 54.7017 8.732 57.5227 8.732C59.2897 8.732 60.8707 8.794 61.9867 9.042C62.2657 9.166 62.5757 9.476 62.6997 9.662C62.7307 9.91 62.5757 10.034 62.3277 10.003C60.9327 9.755 59.1657 9.662 57.3367 9.662C54.3297 9.662 51.0747 9.91 48.7187 10.096V10.282C48.4707 13.568 48.1917 18.373 48.1917 22.775C48.1917 25.875 48.3467 28.789 48.7497 30.773C48.8737 31.486 47.7577 30.99 47.5407 30.37C47.1377 28.572 47.0137 25.441 47.0137 22.403C47.0137 19.272 47.1377 16.265 47.2307 14.963L47.2927 14.343C46.7037 16.327 44.9367 21.256 42.6737 21.628C41.8987 21.752 40.5037 21.504 39.9147 20.853ZM40.7517 14.064C40.3797 13.94 40.1937 13.661 40.3487 13.537C40.4107 13.444 40.6277 12.824 40.6897 12.669L40.7517 12.204C40.7517 12.018 41.0927 11.956 41.4027 12.08C41.8057 12.173 42.0537 12.421 41.9917 12.576C41.9917 12.7 41.9917 12.917 41.8987 13.103C41.8367 13.258 41.5887 13.94 41.4957 14.095C41.4027 14.219 41.0307 14.219 40.7517 14.064ZM58.893 18.962C58.676 18.373 58.676 17.691 58.769 17.195C57.002 17.195 53.437 19.52 53.313 20.512V20.915C53.313 21.38 52.414 20.977 52.29 20.481C52.259 20.326 52.259 20.202 52.259 18.187C52.321 13.103 53.065 8.298 54.305 3.803C54.336 3.617 54.646 3.617 54.987 3.772C55.266 3.958 55.483 4.268 55.421 4.454C54.367 8.298 53.623 12.328 53.406 16.575L53.344 18.404C54.367 17.691 57.126 15.862 58.924 16.327C59.513 16.482 60.04 17.102 59.947 17.443C59.947 17.784 59.885 18.187 59.885 18.559C59.885 19.086 60.009 19.582 60.722 19.799C61.373 19.985 62.396 20.047 63.667 20.047C67.325 20.047 72.657 19.427 74.052 19.024C74.269 18.962 75.416 18.683 75.571 18.931C75.819 19.179 74.517 19.675 74.3 19.737C72.099 20.45 67.573 21.194 64.132 21.194C63.047 21.194 62.086 21.101 61.311 20.946C60.381 20.698 59.327 19.985 58.893 18.962ZM91.9135 28.417C88.1005 25.596 86.0235 12.235 86.0235 5.446C86.0235 4.02 86.1165 2.873 86.3025 2.191C86.3645 2.005 86.5195 1.881 86.7675 1.974C87.0155 2.036 87.6045 2.532 87.5735 2.718C87.4495 3.524 87.4185 4.516 87.4185 5.601C87.4185 11.677 88.9995 21.473 91.2315 25.999C91.7275 26.96 92.1925 27.642 92.7505 28.014L92.7815 28.045C96.9045 28.634 104.159 10.189 106.298 1.292C106.391 1.137 106.515 0.207 106.825 0.423999C107.135 0.547999 107.228 1.416 107.104 2.16C106.515 5.477 99.3845 29.006 93.5565 28.851C93.3395 28.851 92.1305 28.603 91.9135 28.417ZM107.368 20.636C106.903 20.14 106.686 19.086 106.686 18.063C106.686 17.102 106.872 16.141 107.213 15.614C107.244 15.459 107.554 15.428 107.926 15.521C108.267 15.645 108.453 15.893 108.422 16.048C108.174 16.296 107.554 19.799 108.019 20.202C108.267 20.388 108.577 20.481 108.918 20.481C110.84 20.481 114.126 18.001 115.056 17.071C115.18 16.947 115.49 17.133 115.118 17.815C114.529 18.9 111.708 21.349 109.569 21.442C108.794 21.473 107.957 21.287 107.368 20.636ZM108.019 13.444C107.647 13.32 107.461 13.041 107.616 12.917C107.678 12.824 107.895 12.204 107.957 12.049L108.019 11.584C108.019 11.398 108.36 11.336 108.67 11.46C109.073 11.553 109.321 11.801 109.259 11.956C109.259 12.08 109.259 12.297 109.166 12.483C109.104 12.638 108.856 13.32 108.763 13.475C108.67 13.599 108.298 13.599 108.019 13.444ZM110.847 35.392C108.832 34.617 107.344 32.695 107.344 30.463C107.499 27.332 111.188 23.705 115.497 21.07L116.582 20.481C116.551 18.993 116.489 18.218 116.396 17.071L116.303 17.164C115.993 17.474 115.156 18.404 114.722 18.621C114.567 18.683 113.761 18.776 114.133 18.187C114.629 17.505 116.334 15.149 116.241 15.242C116.52 14.994 117.295 15.459 117.295 15.862C117.326 15.924 117.543 17.381 117.605 19.954C118.752 19.396 122.007 18.342 122.689 18.714C122.999 18.869 122.813 19.148 122.565 19.21C121.356 19.551 120.085 20.047 118.814 20.636L117.667 21.225L117.698 22.093V23.271C117.698 24.48 117.667 25.72 117.605 26.96C117.264 31.269 116.148 35.795 112.769 35.795C112.211 35.795 111.591 35.671 110.847 35.392ZM116.551 26.402C116.582 25.1 116.644 23.767 116.613 22.527L116.582 21.845L116.396 21.938C112.18 24.511 108.584 28.076 108.398 30.99C108.398 32.478 109.266 33.997 110.754 34.555C111.281 34.741 111.684 34.834 112.118 34.834C114.877 34.834 116.148 31.083 116.551 26.402ZM116.427 13.847C116.179 13.661 115.993 13.351 116.086 13.196C116.117 13.103 116.303 12.638 116.303 11.925C116.365 11.708 116.644 11.646 116.923 11.801C117.264 11.956 117.481 12.235 117.481 12.452C117.481 12.762 117.419 13.599 117.171 13.909C117.078 14.064 116.768 14.064 116.427 13.847ZM122.71 20.791C122.09 20.326 121.78 19.737 121.78 19.086C121.78 18.404 122.121 17.722 122.896 17.195C123.733 16.637 124.787 16.358 125.872 16.358C126.74 16.358 127.608 16.544 128.383 16.885H128.414L128.941 16.172C129.127 15.831 130.181 16.513 129.964 16.885C129.809 17.35 129.53 17.908 129.468 18.497C129.437 19.024 129.592 19.644 130.15 19.799C131.731 20.109 134.397 18.528 135.513 17.288C136.04 16.761 136.505 17.536 134.8 19.241C134.025 20.016 131.886 21.008 130.584 20.698C129.561 20.45 128.786 19.861 128.383 18.745C127.515 19.52 125.469 21.101 123.826 21.101C123.423 21.101 123.051 21.008 122.71 20.791ZM123.268 20.109C124.756 19.923 126.771 18.652 127.856 17.505C127.546 17.412 127.112 17.35 126.647 17.35C125.097 17.35 123.051 17.939 122.71 19.365C122.617 19.737 122.803 20.078 123.268 20.109ZM141.26 20.884L141.105 18.869C140.206 20.078 138.78 21.318 137.757 21.318C136.734 21.318 135.742 20.543 135.339 19.551C135.184 19.117 135.06 18.59 135.06 18.063C135.06 17.629 135.122 17.195 135.277 16.792C135.401 16.451 135.587 16.141 135.897 16.048C136.083 15.986 136.424 16.11 136.672 16.358C136.92 16.606 136.92 16.885 136.765 16.947C136.641 16.978 136.486 17.164 136.331 17.474C136.269 17.784 136.176 18.187 136.145 18.621C136.207 19.117 136.269 20.016 136.796 20.326C138.098 21.07 140.826 17.443 140.888 16.451C140.888 16.389 140.95 16.358 140.981 16.327C140.919 16.296 140.95 16.296 140.981 16.265C141.012 16.203 141.136 16.172 141.26 16.172C141.57 16.172 142.097 16.544 142.128 16.885C142.159 16.947 142.314 18.218 142.345 20.016V20.14L142.376 20.109C143.213 19.613 147.15 17.691 147.863 18.342C148.142 18.59 148.111 18.652 147.863 18.714C146.623 19.086 144.577 20.202 143.275 20.977L142.376 21.597L142.345 21.969L142.252 24.852C142.004 28.758 141.167 33.005 138.47 33.563C137.695 33.718 136.455 33.222 135.587 32.354C134.75 31.486 134.254 30.37 134.409 29.254C134.874 26.867 137.354 23.767 140.485 21.442L141.26 20.884ZM137.633 32.633C139.989 32.168 141.26 26.681 141.229 22.341L140.516 22.992C138.005 25.286 135.897 27.797 135.556 29.874C135.37 30.835 135.835 31.61 136.207 32.044C136.672 32.478 137.261 32.726 137.633 32.633ZM159.33 18.683C158.741 19.241 156.757 21.318 153.812 21.318C152.262 21.318 150.371 20.729 149.193 19.303C148.511 20.171 148.139 21.721 148.108 23.147C148.108 23.612 147.271 23.209 147.085 22.682C147.023 21.597 146.992 20.45 146.992 19.303C146.992 13.785 147.271 7.895 147.333 4.051C147.333 3.865 147.612 3.741 147.891 3.865C148.232 3.958 148.511 4.206 148.542 4.392C148.418 8.391 148.356 12.855 148.077 18.683C149.069 17.009 150.433 14.994 152.231 14.839C152.913 14.777 153.347 15.273 153.502 15.645C153.967 16.792 151.766 18.559 150.278 18.993C150.805 19.644 152.386 20.295 153.688 20.202C155.92 20.047 158.586 18.249 159.826 17.195C160.229 16.854 159.857 18.187 159.33 18.683ZM152.355 15.707C151.952 15.552 150.929 16.42 149.72 18.342C150.464 18.28 152.572 16.513 152.355 15.707ZM162.299 21.287C161.276 21.287 160.222 20.481 159.881 19.427C159.757 19.055 159.695 18.652 159.695 18.249C159.695 17.753 159.788 17.226 160.036 16.792C160.191 16.482 160.377 16.203 160.656 16.11C160.904 16.048 161.245 16.203 161.493 16.482C161.741 16.73 161.679 16.916 161.524 17.009C161.09 17.288 160.811 18.187 160.811 18.993C160.811 19.551 160.935 20.047 161.276 20.264C162.547 21.132 164.624 17.846 164.872 16.73C164.965 16.296 166.05 16.854 165.988 17.319C165.957 17.536 165.926 18.032 165.926 18.59C166.05 19.334 166.267 20.078 167.135 20.171C169.274 20.078 171.134 18.435 172.157 17.412C172.436 17.04 172.405 17.97 172.033 18.559C171.413 19.52 169.832 21.194 167.693 21.07C166.484 21.07 165.523 20.326 165.089 19.303C164.469 20.202 163.57 21.287 162.299 21.287ZM172.218 20.109C172.187 19.644 172.156 19.179 172.156 18.745C172.156 17.753 172.249 16.854 172.373 16.079C172.466 15.552 173.489 16.234 173.396 16.637C173.427 17.443 173.303 18.001 173.334 19.024C174.419 17.846 175.473 16.606 176.806 15.955C177.054 15.831 177.581 16.141 177.829 16.482C178.17 17.288 178.201 17.939 178.48 19.024L181.487 16.575C181.704 16.42 182.293 16.73 182.51 17.071C182.82 17.691 182.975 18.807 183.595 19.334C183.936 19.551 184.308 19.706 184.742 19.706C185.734 19.706 189.113 18.187 189.547 17.443C189.64 17.288 190.043 17.536 189.671 18.218C189.206 19.055 187.191 20.574 185.424 20.574C184.773 20.574 184.029 20.388 183.347 19.954C182.882 19.644 182.572 19.272 182.293 18.9C182.076 18.59 181.921 18.249 181.828 17.97C180.433 19.117 179.658 19.737 178.821 20.295C178.573 20.419 177.984 20.109 177.798 19.768C177.488 19.086 177.302 18.373 177.023 17.164C175.442 18.187 174.574 19.83 173.365 20.884C173.117 21.101 172.311 20.481 172.218 20.109ZM189.524 20.791C188.904 20.326 188.594 19.737 188.594 19.086C188.594 18.404 188.935 17.722 189.71 17.195C190.547 16.637 191.601 16.358 192.686 16.358C193.554 16.358 194.422 16.544 195.197 16.885H195.228L195.755 16.172C195.941 15.831 196.995 16.513 196.778 16.885C196.623 17.35 196.344 17.908 196.282 18.497C196.251 19.024 196.406 19.644 196.964 19.799C198.545 20.109 201.211 18.528 202.327 17.288C202.854 16.761 203.319 17.536 201.614 19.241C200.839 20.016 198.7 21.008 197.398 20.698C196.375 20.45 195.6 19.861 195.197 18.745C194.329 19.52 192.283 21.101 190.64 21.101C190.237 21.101 189.865 21.008 189.524 20.791ZM190.082 20.109C191.57 19.923 193.585 18.652 194.67 17.505C194.36 17.412 193.926 17.35 193.461 17.35C191.911 17.35 189.865 17.939 189.524 19.365C189.431 19.737 189.617 20.078 190.082 20.109ZM201.936 21.07C201.812 20.791 201.75 19.985 202.184 16.079C202.184 15.862 202.494 15.862 202.804 16.017C203.083 16.172 203.269 16.482 203.269 16.668L203.238 17.877C204.013 16.885 206.307 15.087 208.012 15.366C208.725 15.49 209.159 16.141 208.942 16.389C208.508 16.885 208.074 16.699 208.105 16.451L208.136 16.203C206.586 16.172 204.013 18.063 203.269 20.202C203.176 20.45 203.176 20.636 203.052 21.535C203.083 21.938 202.06 21.535 201.936 21.07ZM210.564 20.791C209.944 20.326 209.634 19.737 209.634 19.086C209.634 18.404 209.975 17.722 210.75 17.195C211.587 16.637 212.641 16.358 213.726 16.358C214.594 16.358 215.462 16.544 216.237 16.885H216.268L216.795 16.172C216.981 15.831 218.035 16.513 217.818 16.885C217.663 17.35 217.384 17.908 217.322 18.497C217.291 19.024 217.446 19.644 218.004 19.799C219.585 20.109 222.251 18.528 223.367 17.288C223.894 16.761 224.359 17.536 222.654 19.241C221.879 20.016 219.74 21.008 218.438 20.698C217.415 20.45 216.64 19.861 216.237 18.745C215.369 19.52 213.323 21.101 211.68 21.101C211.277 21.101 210.905 21.008 210.564 20.791ZM211.122 20.109C212.61 19.923 214.625 18.652 215.71 17.505C215.4 17.412 214.966 17.35 214.501 17.35C212.951 17.35 210.905 17.939 210.564 19.365C210.471 19.737 210.657 20.078 211.122 20.109ZM222.852 20.512C222.821 20.264 222.79 19.954 222.852 19.582L223.162 16.482C223.162 16.265 223.472 16.234 223.782 16.358C224.03 16.513 224.309 16.792 224.278 16.978L224.216 18.032C225.27 17.257 227.502 16.141 229.238 16.327C229.827 16.389 230.385 16.947 230.385 17.412C230.385 17.939 230.044 19.117 230.447 19.706C230.757 19.954 231.098 20.047 231.501 20.047C233.423 20.047 236.12 17.598 237.112 17.102C237.236 17.04 237.36 17.722 236.895 18.311C236.151 19.272 234.136 20.915 231.966 20.915C231.067 20.915 230.075 20.543 229.517 19.737C229.207 19.272 229.114 18.745 229.114 18.187C229.114 17.846 229.145 17.505 229.207 17.133C226.913 17.381 224.557 18.869 223.968 20.171L223.937 20.884C223.968 21.287 222.883 21.008 222.852 20.512Z" fill="black"/>
</svg>
