<svg width="1955" height="2001" viewBox="0 0 1955 2001" fill="none" xmlns="http://www.w3.org/2000/svg">
<path d="M1104.97 846.123L1105.02 846.121L1105.06 846.117C1160.26 840.131 1207.59 892.764 1194.21 947.715C1191.74 957.861 1187.93 968.532 1184 979.326C1183.67 980.218 1183.34 981.111 1183.02 982.004C1179.4 991.892 1175.76 1001.85 1173.08 1011.45C1167.27 1032.27 1165.76 1052.1 1179.47 1066.38C1188.46 1077.91 1188.22 1095.07 1181.49 1108.12C1178.13 1114.63 1173.22 1120 1167.18 1123.09C1161.17 1126.17 1153.96 1127.04 1145.85 1124.42C1128.63 1118.85 1117.84 1119.55 1110.9 1126.49C1107.49 1129.89 1105.17 1134.64 1103.41 1140.43C1101.65 1146.22 1100.4 1153.19 1099.24 1161.13L1099.24 1161.16L1099.23 1161.19C1095.04 1203.15 1052.76 1233.63 1011.47 1223.57C1003.78 1221.69 995.694 1218.09 988.676 1213.6C981.643 1209.1 975.795 1203.78 972.477 1198.52C965.357 1187.24 957.034 1180.23 948.335 1176.17C939.647 1172.11 930.672 1171.03 922.296 1171.48C908.986 1172.18 896.939 1176.79 889.938 1179.47C888.186 1180.14 886.75 1180.69 885.689 1181.03C874.911 1184.45 866.788 1184.13 860.66 1181.78C854.532 1179.42 850.203 1174.95 847.154 1169.71C841.011 1159.14 840.247 1145.72 840.507 1141.54C841.606 1123.86 837.955 1110.58 829.988 1099.78C822.061 1089.02 809.969 1080.86 794.498 1073.16C767.697 1059.52 753.165 1028.77 760.312 999.434L760.312 999.434C764.518 982.165 776.502 968.818 789.505 959.345C796.287 954.404 801.987 947.784 805.416 938.928C808.842 930.079 809.962 919.097 807.747 905.486C805.624 892.442 808.634 883.805 814.21 877.989C819.859 872.097 828.356 868.872 837.63 867.17L837.664 867.163L837.699 867.155C850.985 864.06 860.38 860.048 867.055 853.858C873.758 847.643 877.551 839.388 879.967 828.173C882.997 814.11 890.901 798.536 905.054 788.214C919.158 777.927 939.657 772.716 968.195 779.675L968.195 779.675C991.034 785.242 1007.26 798.562 1023.6 811.978C1026.38 814.262 1029.16 816.548 1031.98 818.799C1051.33 834.241 1072.22 847.811 1104.97 846.123Z" stroke="black" stroke-width="3"/>
<path d="M1143.68 798.227L1143.73 798.225L1143.77 798.22C1216.06 790.386 1278.03 859.256 1260.5 931.172C1257.27 944.421 1252.3 958.349 1247.17 972.413C1246.74 973.575 1246.32 974.737 1245.89 975.901C1241.18 988.789 1236.44 1001.75 1232.95 1014.24C1225.37 1041.37 1223.47 1066.98 1241.19 1085.39C1253.05 1100.59 1252.71 1123.16 1243.88 1140.3C1239.47 1148.84 1233 1155.92 1225.02 1160C1217.07 1164.07 1207.55 1165.21 1196.87 1161.76C1174.44 1154.52 1160.62 1155.5 1151.75 1164.35C1147.39 1168.7 1144.4 1174.81 1142.11 1182.32C1139.82 1189.84 1138.2 1198.89 1136.68 1209.23L1136.68 1209.26L1136.68 1209.29C1131.18 1264.23 1075.8 1304.15 1021.68 1290.97C1011.6 1288.51 1001.01 1283.8 991.826 1277.92C982.623 1272.04 974.939 1265.06 970.565 1258.14C961.324 1243.5 950.536 1234.43 939.28 1229.17C928.035 1223.92 916.411 1222.52 905.546 1223.1C888.278 1224.02 872.676 1229.98 863.533 1233.47C861.23 1234.35 859.336 1235.08 857.93 1235.52C843.806 1240.01 833.105 1239.61 824.993 1236.49C816.882 1233.38 811.166 1227.47 807.154 1220.57C799.083 1206.7 798.084 1189.11 798.426 1183.61C799.854 1160.65 795.11 1143.47 784.799 1129.49C774.527 1115.56 758.84 1104.97 738.689 1094.94C703.557 1077.08 684.505 1036.79 693.876 998.352L692.419 997.997L693.876 998.352C699.394 975.706 715.11 958.233 732.113 945.852C740.895 939.458 748.267 930.898 752.702 919.45C757.134 908.009 758.595 893.782 755.717 876.108C752.931 859.003 756.875 847.594 764.264 839.891C771.727 832.111 782.917 827.884 795.047 825.659L795.082 825.652L795.116 825.644C812.409 821.618 824.567 816.414 833.185 808.427C841.831 800.415 846.746 789.759 849.885 775.194C853.853 756.786 864.208 736.383 882.772 722.851C901.287 709.355 928.157 702.555 965.476 711.651L965.831 710.194L965.476 711.651C995.364 718.932 1016.6 736.362 1037.91 753.845C1041.53 756.818 1045.15 759.793 1048.82 762.72C1074.02 782.818 1101.14 800.418 1143.68 798.227Z" stroke="black" stroke-width="3"/>
<path d="M1187.01 744.949L1187.06 744.946L1187.1 744.942C1278.51 735.031 1356.87 822.149 1334.71 913.138C1330.63 929.875 1324.36 947.465 1317.88 965.204C1317.35 966.668 1316.81 968.134 1316.28 969.6C1310.33 985.862 1304.36 1002.19 1299.96 1017.94C1290.41 1052.15 1288.08 1084.27 1310.27 1107.33C1325.36 1126.66 1324.91 1155.31 1313.71 1177.03C1308.13 1187.87 1299.91 1196.86 1289.77 1202.06C1279.65 1207.24 1267.53 1208.68 1253.97 1204.3C1225.72 1195.17 1208.49 1196.48 1197.48 1207.47C1192.05 1212.89 1188.3 1220.53 1185.42 1229.97C1182.55 1239.42 1180.51 1250.82 1178.6 1263.86L1178.59 1263.89L1178.59 1263.92C1171.64 1333.46 1101.58 1383.98 1033.11 1367.29C1020.36 1364.18 1006.97 1358.22 995.353 1350.79C983.721 1343.35 973.982 1334.51 968.425 1325.71C956.81 1307.31 943.263 1295.91 929.145 1289.32C915.037 1282.73 900.448 1280.97 886.796 1281.69C865.096 1282.85 845.514 1290.33 833.976 1294.74C831.055 1295.86 828.65 1296.78 826.856 1297.35L827.289 1298.71L826.855 1297.35C808.987 1303.02 795.4 1302.53 785.069 1298.56C774.739 1294.59 767.469 1287.07 762.378 1278.31C752.148 1260.72 750.887 1238.45 751.321 1231.46C753.117 1202.57 747.15 1180.99 734.214 1163.44C721.318 1145.95 701.604 1132.62 676.215 1119.98C631.759 1097.37 607.647 1046.36 619.507 997.697L618.156 997.368L619.507 997.697C626.494 969.008 646.388 946.895 667.868 931.246C678.889 923.219 688.133 912.478 693.694 898.117C699.253 883.762 701.094 865.889 697.474 843.648C693.946 821.975 698.936 807.45 708.355 797.626C717.848 787.725 732.053 782.372 747.38 779.559L747.415 779.553L747.449 779.545C769.228 774.471 784.479 767.927 795.272 757.92C806.092 747.887 812.263 734.532 816.212 716.202C821.231 692.911 834.329 667.079 857.83 649.94C881.283 632.837 915.285 624.251 962.431 635.747L962.787 634.29L962.432 635.747C1000.21 644.955 1027.06 667.005 1053.92 689.059C1058.49 692.808 1063.05 696.557 1067.67 700.243C1099.42 725.575 1133.52 747.705 1187.01 744.949Z" stroke="black" stroke-width="3"/>
<path d="M1244.21 675.064L1244.26 675.062L1244.3 675.058C1360.95 662.422 1460.94 773.48 1432.66 889.484C1427.46 910.796 1419.47 933.188 1411.23 955.747C1410.55 957.609 1409.87 959.472 1409.18 961.335C1401.61 982.021 1394.02 1002.78 1388.42 1022.79C1376.26 1066.3 1373.36 1106.95 1401.46 1136.11C1420.81 1160.85 1420.21 1197.48 1405.9 1225.21C1398.75 1239.05 1388.24 1250.57 1375.24 1257.22C1362.26 1263.85 1346.72 1265.7 1329.35 1260.09C1293.41 1248.49 1271.69 1250.22 1257.85 1264.03C1251 1270.86 1246.25 1280.5 1242.6 1292.48C1238.95 1304.47 1236.36 1318.93 1233.92 1335.51L1233.92 1335.55L1233.91 1335.58C1225.04 1424.27 1135.62 1488.7 1048.21 1467.41C1031.92 1463.44 1014.83 1455.83 1000.01 1446.36C985.17 1436.88 972.717 1425.6 965.6 1414.34C950.85 1391 933.661 1376.56 915.765 1368.21C897.879 1359.86 879.376 1357.63 862.046 1358.55C834.497 1360.01 809.662 1369.49 794.96 1375.11C791.225 1376.53 788.144 1377.71 785.839 1378.44L786.248 1379.73L785.838 1378.44C763.026 1385.68 745.629 1385.07 732.368 1379.98C719.108 1374.88 709.788 1365.24 703.272 1354.04C690.195 1331.57 688.587 1303.16 689.142 1294.23C691.423 1257.55 683.842 1230.21 667.442 1207.99C651.081 1185.82 626.052 1168.9 593.748 1152.83C536.984 1123.98 506.196 1058.92 521.34 996.839L519.975 996.506L521.34 996.839C530.266 960.222 555.674 932.025 583.065 912.089C597.041 901.919 608.755 888.319 615.803 870.135C622.849 851.959 625.193 829.301 620.594 801.07C616.087 773.407 622.456 754.795 634.555 742.189C646.728 729.505 664.912 722.674 684.459 719.091L684.494 719.084L684.528 719.076C712.227 712.63 731.562 704.327 745.226 691.671C758.917 678.989 766.745 662.093 771.763 638.825C778.168 609.127 794.887 576.175 824.906 554.304C854.876 532.469 898.293 521.539 958.414 536.185L958.738 534.853L958.414 536.185C1006.61 547.92 1040.87 576.032 1075.07 604.082C1080.88 608.847 1086.68 613.611 1092.55 618.293C1132.95 650.491 1176.26 678.563 1244.21 675.064Z" stroke="black" stroke-width="3"/>
<path d="M1289.28 619.711L1289.32 619.708L1289.36 619.704C1425.91 604.91 1542.94 734.929 1509.83 870.747C1503.76 895.684 1494.41 921.88 1484.77 948.257C1483.98 950.433 1483.18 952.61 1482.38 954.787C1473.53 978.979 1464.66 1003.24 1458.12 1026.63C1443.9 1077.5 1440.55 1124.91 1473.31 1158.9C1496.01 1187.92 1495.3 1230.88 1478.53 1263.37C1470.16 1279.6 1457.83 1293.1 1442.58 1300.91C1427.35 1308.7 1409.11 1310.86 1388.75 1304.29C1346.75 1290.72 1321.48 1292.79 1305.41 1308.82C1297.45 1316.77 1291.91 1328 1287.65 1341.99C1283.38 1355.99 1280.36 1372.89 1277.51 1392.27L1277.51 1392.31L1277.5 1392.34C1267.11 1496.19 1162.43 1571.64 1060.1 1546.71C1041.03 1542.06 1021.02 1533.16 1003.68 1522.07C986.312 1510.97 971.722 1497.76 963.375 1484.54C946.155 1457.28 926.096 1440.44 905.224 1430.7C884.361 1420.96 862.775 1418.35 842.546 1419.43C810.388 1421.13 781.413 1432.2 764.22 1438.76C759.843 1440.43 756.23 1441.81 753.522 1442.67L753.907 1443.89L753.521 1442.67C726.814 1451.15 706.415 1450.44 690.847 1444.46C675.278 1438.48 664.343 1427.16 656.705 1414.03C641.383 1387.7 639.501 1354.41 640.152 1343.94C642.816 1301.11 633.964 1269.19 614.834 1243.27C595.744 1217.39 566.528 1197.63 528.775 1178.85C462.313 1145.07 426.264 1068.87 443.996 996.159L442.736 995.852L443.996 996.159C454.451 953.263 484.203 920.245 516.251 896.914C532.556 885.047 546.216 869.181 554.435 847.971C562.652 826.767 565.392 800.321 560.021 767.345C554.743 734.937 562.199 713.088 576.409 698.278C590.694 683.39 612.014 675.389 634.885 671.195L634.92 671.188L634.955 671.18C667.318 663.646 689.871 653.951 705.796 639.196C721.749 624.415 730.883 604.714 736.743 577.535C744.24 542.763 763.812 504.171 798.966 478.553C834.072 452.969 884.906 440.184 955.248 457.324L955.536 456.142L955.248 457.324C1011.65 471.061 1051.75 503.973 1091.72 536.772C1098.51 542.343 1105.3 547.912 1112.16 553.382C1159.36 591.019 1209.93 623.796 1289.28 619.711Z" stroke="black" stroke-width="3"/>
<path d="M1334.34 564.357L1334.39 564.355L1334.43 564.35C1490.86 547.398 1624.94 696.377 1587.01 852.011C1580.05 880.572 1569.34 910.572 1558.32 940.767C1557.41 943.259 1556.49 945.753 1555.58 948.246C1545.45 975.941 1535.29 1003.71 1527.82 1030.47C1511.54 1088.71 1507.74 1142.88 1545.15 1181.7C1571.21 1215 1570.38 1264.27 1551.16 1301.53C1541.56 1320.14 1527.43 1335.64 1509.91 1344.6C1492.43 1353.55 1471.5 1356.03 1448.14 1348.48C1400.08 1332.95 1371.28 1335.36 1352.98 1353.62C1343.9 1362.68 1337.57 1375.5 1332.7 1391.5C1327.82 1407.51 1324.36 1426.84 1321.1 1449.03L1321.1 1449.07L1321.09 1449.1C1309.19 1568.12 1189.25 1654.58 1071.99 1626.01C1050.14 1620.68 1027.22 1610.48 1007.34 1597.77C987.454 1585.06 970.726 1569.91 961.15 1554.75C941.46 1523.57 918.532 1504.32 894.682 1493.18C870.843 1482.05 846.173 1479.07 823.046 1480.3C786.278 1482.26 753.165 1494.9 733.48 1502.42C728.461 1504.33 724.316 1505.92 721.205 1506.9C690.602 1516.62 667.202 1515.82 649.325 1508.95C631.448 1502.08 618.898 1489.08 610.138 1474.02C592.57 1443.82 590.416 1405.67 591.163 1393.66C594.21 1344.66 584.085 1308.18 562.226 1278.55C540.406 1248.97 507.003 1226.36 463.801 1204.87C387.643 1166.15 346.331 1078.82 366.652 995.479L365.195 995.124L366.652 995.479C378.635 946.304 412.732 908.466 449.437 881.74C468.07 868.175 483.677 850.044 493.067 825.807C502.455 801.576 505.592 771.341 499.449 733.62C493.399 696.467 501.942 671.38 518.264 654.366C534.66 637.275 559.115 628.104 585.312 623.299L585.346 623.292L585.381 623.284C622.41 614.663 648.18 603.575 666.366 586.721C684.581 569.841 695.021 547.336 701.723 516.245C710.313 476.399 732.737 432.168 773.027 402.801C813.267 373.47 871.519 358.829 952.082 378.463L952.388 377.205L952.082 378.463C1016.69 394.201 1062.63 431.915 1108.38 469.462C1116.15 475.84 1123.91 482.212 1131.76 488.471C1185.77 531.546 1243.6 569.03 1334.34 564.357Z" stroke="black" stroke-width="3"/>
<path d="M1388.07 498.624L1388.12 498.622L1388.16 498.617C1568.3 479.103 1722.71 650.599 1679.02 829.762C1671.01 862.626 1658.69 897.143 1646 931.873C1644.96 934.738 1643.91 937.605 1642.86 940.473C1631.2 972.33 1619.52 1004.26 1610.91 1035.04C1592.19 1102.01 1587.86 1164.21 1630.82 1208.76C1660.88 1247.16 1659.9 1303.93 1637.76 1346.85C1626.7 1368.29 1610.4 1386.15 1590.2 1396.48C1570.03 1406.8 1545.88 1409.66 1518.95 1400.96C1463.67 1383.11 1430.64 1385.91 1409.68 1406.82C1399.28 1417.2 1392.01 1431.9 1386.41 1450.29C1380.8 1468.69 1376.82 1490.91 1373.07 1516.43L1373.07 1516.47L1373.07 1516.5C1359.35 1653.53 1221.22 1753.07 1086.16 1720.18C1060.99 1714.04 1034.6 1702.29 1011.72 1687.67C988.815 1673.04 969.539 1655.59 958.496 1638.11C935.862 1602.29 909.512 1580.18 882.114 1567.39C854.726 1554.61 826.378 1551.18 799.796 1552.59C757.533 1554.84 719.484 1569.36 696.828 1578.01C691.045 1580.21 686.265 1582.04 682.673 1583.18C647.427 1594.37 620.448 1593.45 599.818 1585.53C579.189 1577.61 564.713 1562.6 554.615 1545.25C534.372 1510.47 531.891 1466.53 532.752 1452.7C536.255 1396.38 524.615 1354.48 499.501 1320.44C474.426 1286.46 436.031 1260.48 386.333 1235.76C298.612 1191.18 251.028 1090.64 274.435 994.671L273.175 994.364L274.435 994.671C288.239 938.04 327.517 894.478 369.774 863.72C391.183 848.14 409.11 827.319 419.897 799.487C430.681 771.662 434.291 736.927 427.228 693.571C420.258 650.784 430.097 621.853 448.936 602.222C467.849 582.514 496.044 571.953 526.204 566.423L526.239 566.416L526.274 566.408C568.864 556.495 598.47 543.753 619.353 524.407C640.264 505.036 652.262 479.2 659.968 443.464C669.86 397.593 695.686 346.663 742.098 312.846C788.461 279.064 855.557 262.219 948.307 284.816L948.662 283.359L948.307 284.816C1022.7 302.931 1075.61 346.345 1128.24 389.533C1137.18 396.867 1146.11 404.194 1155.14 411.39C1217.27 460.923 1283.75 503.995 1388.07 498.624Z" stroke="black" stroke-width="3"/>
<path d="M1436.03 439.811L1436.07 439.809L1436.11 439.804C1637.42 417.997 1809.96 609.638 1761.15 809.854C1752.2 846.569 1738.43 885.128 1724.26 923.915C1723.09 927.114 1721.92 930.316 1720.75 933.518C1707.73 969.098 1694.68 1004.75 1685.08 1039.12C1664.17 1113.92 1659.35 1183.29 1707.27 1232.98C1740.9 1275.93 1739.8 1339.42 1715.05 1387.4C1702.68 1411.37 1684.46 1431.35 1661.86 1442.91C1639.29 1454.45 1612.27 1457.64 1582.15 1447.92C1520.42 1427.98 1483.63 1431.14 1460.3 1454.42C1448.7 1465.98 1440.6 1482.37 1434.34 1502.9C1428.08 1523.43 1423.64 1548.23 1419.46 1576.74L1419.45 1576.77L1419.45 1576.81C1404.12 1729.95 1249.75 1841.19 1098.82 1804.43C1070.69 1797.57 1041.19 1784.45 1015.62 1768.11C990.03 1751.76 968.479 1732.25 956.128 1712.7C930.866 1672.72 901.463 1648.05 870.897 1633.78C840.341 1619.52 808.712 1615.7 779.046 1617.27C731.879 1619.78 689.425 1635.98 664.118 1645.64C657.652 1648.11 652.305 1650.15 648.285 1651.43L648.739 1652.85L648.285 1651.43C608.893 1663.93 578.721 1662.91 555.635 1654.05C532.549 1645.18 516.355 1628.39 505.062 1608.99C482.43 1570.1 479.66 1520.99 480.622 1505.52C484.532 1442.65 471.539 1395.9 443.52 1357.93C415.542 1320.01 372.693 1291.01 317.2 1263.41C219.157 1213.59 165.972 1101.21 192.133 993.949L190.676 993.594L192.133 993.949C207.564 930.645 251.464 881.963 298.677 847.597C322.564 830.214 342.562 806.986 354.595 775.938C366.626 744.896 370.657 706.135 362.772 657.739C354.981 609.91 365.978 577.539 387.064 555.567C408.223 533.517 439.754 521.713 473.453 515.533L473.488 515.527L473.522 515.519C521.076 504.45 554.106 490.228 577.396 468.653C600.714 447.051 614.101 418.235 622.703 378.344C633.757 327.081 662.619 270.159 714.496 232.36C766.323 194.596 841.311 175.779 944.938 201.026L945.293 199.569L944.938 201.026C1028.06 221.268 1087.19 269.783 1145.97 318.016C1155.95 326.206 1165.92 334.388 1176 342.422C1245.38 397.733 1319.58 445.806 1436.03 439.811Z" stroke="black" stroke-width="3"/>
<path d="M1490.34 373.386L1490.38 373.384L1490.42 373.379C1715.7 348.982 1908.78 563.377 1854.15 787.371C1844.14 828.435 1828.74 871.558 1812.89 914.926C1811.59 918.503 1810.28 922.081 1808.97 925.66C1794.4 965.447 1779.81 1005.31 1769.07 1043.73C1745.68 1127.36 1740.33 1204.85 1793.86 1260.33C1831.52 1308.43 1830.29 1379.5 1802.58 1433.19C1788.73 1460.02 1768.32 1482.39 1743.01 1495.34C1717.72 1508.27 1687.45 1511.84 1653.72 1500.95C1584.69 1478.66 1543.63 1482.22 1517.61 1508.18C1504.68 1521.08 1495.62 1539.37 1488.63 1562.31C1481.64 1585.25 1476.67 1612.98 1471.99 1644.85L1471.98 1644.88L1471.98 1644.92C1454.83 1816.26 1282.07 1940.72 1113.15 1899.59C1081.66 1891.92 1048.66 1877.23 1020.04 1858.95C991.406 1840.66 967.279 1818.84 953.446 1796.95C925.207 1752.27 892.346 1724.7 858.193 1708.77C824.05 1692.84 788.705 1688.56 755.546 1690.32C702.824 1693.12 655.382 1711.22 627.073 1722.03C619.833 1724.79 613.845 1727.07 609.339 1728.5C565.254 1742.5 531.464 1741.36 505.596 1731.43C479.728 1721.5 461.588 1702.69 448.943 1680.97C423.606 1637.45 420.506 1582.5 421.583 1565.18C425.955 1494.92 411.428 1442.68 380.12 1400.27C348.851 1357.9 300.951 1325.49 238.887 1294.63C129.165 1238.88 69.6446 1113.14 98.9239 993.133L97.4666 992.778L98.9239 993.133C116.196 922.295 165.332 867.828 218.157 829.388C244.85 809.968 267.194 784.022 280.638 749.341C294.081 714.667 298.589 671.359 289.775 617.268C281.054 563.746 293.361 527.491 316.991 502.873C340.695 478.179 376.004 464.97 413.71 458.058L413.745 458.052L413.779 458.044C466.955 445.67 503.862 429.777 529.877 405.683C555.921 381.563 570.882 349.382 580.499 304.796C592.87 247.445 625.17 183.755 683.235 141.458C741.25 99.1966 825.178 78.1531 941.123 106.393L941.411 105.212L941.123 106.393C1034.13 129.037 1100.3 183.313 1166.04 237.246C1177.21 246.402 1188.36 255.549 1199.62 264.529C1277.21 326.366 1360.16 380.086 1490.34 373.386Z" stroke="black" stroke-width="3"/>
<path d="M1542.34 309.729L1542.38 309.727L1542.42 309.722C1790.65 282.844 2003.39 519.044 1943.2 765.824C1932.17 811.055 1915.2 858.554 1897.75 906.313C1896.31 910.253 1894.87 914.195 1893.43 918.138C1877.39 961.954 1861.32 1005.84 1849.49 1048.15C1823.73 1140.25 1817.86 1225.51 1876.76 1286.55C1918.3 1339.57 1916.92 1417.91 1886.38 1477.08C1871.12 1506.64 1848.62 1531.31 1820.71 1545.58C1792.82 1559.84 1759.44 1563.78 1722.25 1551.77C1646.22 1527.23 1601.09 1531.18 1572.49 1559.69C1558.27 1573.88 1548.31 1594 1540.61 1619.25C1532.91 1644.5 1527.44 1675.02 1522.29 1710.12L1522.28 1710.16L1522.28 1710.19C1503.38 1898.98 1313.01 2036.11 1126.86 1990.79C1092.17 1982.33 1055.8 1966.15 1024.27 1946.01C992.723 1925.86 966.13 1901.81 950.878 1877.68C919.79 1828.5 883.618 1798.17 846.03 1780.63C808.452 1763.1 769.549 1758.39 733.047 1760.33C675.006 1763.41 622.788 1783.33 591.604 1795.23C583.624 1798.27 577.021 1800.79 572.051 1802.37C523.471 1817.79 486.218 1816.54 457.686 1805.59C429.155 1794.64 409.151 1773.9 395.211 1749.96C367.284 1701.99 363.869 1641.45 365.057 1622.35C369.87 1545 353.876 1487.51 319.419 1440.84C285 1394.21 232.269 1358.53 163.917 1324.55C43.0071 1263.12 -22.5845 1124.58 9.68105 992.351L8.4205 992.043L9.6811 992.351C28.7163 914.291 82.8656 854.282 141.064 811.938C170.443 790.565 195.033 762.015 209.829 723.852C224.623 685.697 229.588 638.032 219.884 578.484C210.272 519.505 223.833 479.527 249.9 452.376C276.04 425.147 314.967 410.592 356.509 402.978L356.544 402.972L356.579 402.964C415.137 389.339 455.756 371.845 484.381 345.337C513.034 318.804 529.503 283.397 540.091 234.313C553.723 171.127 589.314 100.951 653.304 54.3438C717.245 7.7722 809.731 -15.4055 937.47 15.7031L937.825 14.2457L937.47 15.7032C1039.95 40.6487 1112.85 100.446 1185.26 159.84C1197.56 169.923 1209.84 179.994 1222.24 189.881C1307.69 257.973 1399.02 317.105 1542.34 309.729Z" stroke="black" stroke-width="3"/>
</svg>
