<svg width="2008" height="2082" viewBox="0 0 2008 2082" fill="none" xmlns="http://www.w3.org/2000/svg">
<g filter="url(#filter0_dddd_851_1232)">
<path d="M1551.26 313.231C1265.72 327.925 1187.39 77.8044 946.825 19.2457C690.634 -43.1451 575.005 112.081 547.625 238.997C526.52 336.832 482.158 379.299 365.239 406.503C281.904 421.777 208.062 465.045 227.403 583.726C246.745 702.407 207.541 773.27 149.181 815.725C90.8214 858.187 36.3737 918.466 17.2238 996.995C-15.2116 1129.93 50.7253 1269.16 172.25 1330.89C308.81 1398.79 382.152 1473.11 372.56 1627.26C370.163 1665.79 386.255 1870.76 581.504 1808.8C630.817 1793.16 834.814 1687.63 958.61 1883.48C989.433 1932.25 1065.76 1980.24 1135.51 1997.24C1322.55 2042.78 1513.78 1905.02 1532.77 1715.34C1553.37 1574.99 1578.92 1509.18 1730.78 1558.2C1881.05 1606.7 1970.96 1397.75 1886.89 1290.56C1770.2 1169.75 1909.44 952.475 1953.66 771.18C2014.1 523.371 1800.5 286.243 1551.26 313.231Z" fill="#D9D9D9"/>
</g>
<g filter="url(#filter1_ddddd_851_1232)">
<path d="M1499.26 376.888C1240.01 390.231 1168.89 163.11 950.478 109.936C717.875 53.282 612.892 194.234 588.033 309.48C568.871 398.319 528.593 436.881 422.439 461.583C346.777 475.453 279.734 514.742 297.294 622.51C314.856 730.277 279.261 794.625 226.274 833.175C173.288 871.733 123.853 926.469 106.467 997.778C77.0176 1118.48 136.884 1244.92 247.219 1300.97C371.206 1362.62 437.795 1430.11 429.086 1570.09C426.91 1605.07 441.52 1791.2 618.793 1734.93C663.565 1720.73 848.78 1624.9 961.178 1802.75C989.163 1847.03 1058.46 1890.61 1121.79 1906.05C1291.61 1947.4 1465.23 1822.31 1482.47 1650.07C1501.18 1522.62 1524.38 1462.86 1662.26 1507.38C1798.68 1551.42 1880.32 1361.68 1803.99 1264.35C1698.04 1154.64 1824.46 957.351 1864.61 792.726C1919.49 567.704 1725.55 352.381 1499.26 376.888Z" fill="#D9D9D9"/>
</g>
<g filter="url(#filter2_ddddd_851_1232)">
<path d="M1444.95 443.313C1213.16 455.246 1149.58 252.124 954.293 204.569C746.327 153.902 652.463 279.96 630.237 383.027C613.104 462.479 577.093 496.966 482.182 519.058C414.534 531.462 354.592 566.6 370.292 662.98C385.993 759.36 354.169 816.908 306.794 851.385C259.42 885.868 215.221 934.82 199.676 998.594C173.346 1106.55 226.871 1219.62 325.52 1269.75C436.375 1324.89 495.911 1385.24 488.125 1510.43C486.179 1541.71 499.242 1708.17 657.739 1657.85C697.769 1645.15 863.367 1559.45 963.86 1718.51C988.881 1758.11 1050.84 1797.08 1107.46 1810.89C1259.3 1847.87 1414.53 1736 1429.94 1581.96C1446.66 1467.98 1467.41 1414.53 1590.68 1454.34C1712.66 1493.73 1785.65 1324.05 1717.4 1237C1622.68 1138.88 1735.71 962.439 1771.6 815.21C1820.67 613.966 1647.28 421.395 1444.95 443.313Z" fill="#D9D9D9"/>
</g>
<g filter="url(#filter3_ddddd_851_1232)">
<path d="M1397 502.126C1189.45 512.811 1132.52 330.939 957.662 288.359C771.449 242.992 687.403 355.863 667.502 448.148C652.161 519.287 619.917 550.167 534.934 569.947C474.362 581.054 420.689 612.515 434.747 698.813C448.806 785.11 420.31 836.637 377.891 867.507C335.472 898.383 295.897 942.214 281.978 999.316C258.402 1095.97 306.328 1197.22 394.659 1242.1C493.918 1291.47 547.227 1345.52 540.255 1457.6C538.513 1485.62 550.209 1634.66 692.127 1589.61C727.97 1578.23 876.247 1501.5 966.228 1643.91C988.632 1679.37 1044.11 1714.27 1094.81 1726.63C1230.76 1759.75 1369.76 1659.58 1383.56 1521.65C1398.53 1419.6 1417.11 1371.74 1527.49 1407.39C1636.7 1442.66 1702.06 1290.72 1640.95 1212.78C1556.14 1124.93 1657.34 966.944 1689.48 835.117C1733.41 654.926 1578.16 482.502 1397 502.126Z" fill="#D9D9D9"/>
</g>
<g filter="url(#filter4_ddddd_851_1232)">
<path d="M1343.27 567.859C1162.89 577.148 1113.41 419.026 961.437 382.006C799.598 342.563 726.553 440.695 709.257 520.929C695.924 582.779 667.9 609.626 594.041 626.823C541.397 636.48 494.75 663.833 506.968 738.861C519.187 813.889 494.421 858.688 457.554 885.527C420.688 912.371 386.292 950.478 374.195 1000.12C353.705 1084.16 395.358 1172.18 472.127 1211.21C558.394 1254.13 604.725 1301.12 598.666 1398.57C597.151 1422.92 607.317 1552.5 730.659 1513.33C761.81 1503.44 890.678 1436.73 968.881 1560.55C988.353 1591.38 1036.57 1621.72 1080.63 1632.47C1198.79 1661.25 1319.59 1574.16 1331.59 1454.25C1344.6 1365.52 1360.74 1323.92 1456.67 1354.91C1551.6 1385.57 1608.4 1253.48 1555.29 1185.71C1481.57 1109.33 1569.53 971.979 1597.47 857.366C1635.65 700.706 1500.71 550.797 1343.27 567.859Z" fill="#D9D9D9"/>
</g>
<g filter="url(#filter5_ddddd_851_1232)">
<path d="M1298.2 623.213C1140.61 631.327 1097.38 493.204 964.603 460.867C823.206 426.413 759.388 512.133 744.277 582.219C732.628 636.246 708.144 659.697 643.615 674.719C597.621 683.154 556.866 707.048 567.541 772.586C578.216 838.125 556.578 877.257 524.369 900.701C492.159 924.15 462.108 957.438 451.539 1000.8C433.637 1074.21 470.029 1151.1 537.1 1185.19C612.471 1222.68 652.949 1263.73 647.655 1348.85C646.332 1370.13 655.214 1483.32 762.975 1449.1C790.192 1440.46 902.782 1382.19 971.107 1490.34C988.119 1517.27 1030.25 1543.77 1068.74 1553.17C1171.97 1578.31 1277.52 1502.24 1288 1397.49C1299.36 1319.99 1313.47 1283.64 1397.28 1310.71C1480.22 1337.5 1529.84 1222.11 1483.44 1162.92C1419.04 1096.2 1495.89 976.218 1520.29 876.103C1553.65 739.257 1435.76 608.309 1298.2 623.213Z" fill="#D9D9D9"/>
</g>
<g filter="url(#filter6_ddddd_851_1232)">
<path d="M1253.14 678.566C1118.33 685.506 1081.35 567.383 967.769 539.728C846.815 510.263 792.224 583.57 779.297 643.508C769.333 689.712 748.389 709.768 693.188 722.615C653.844 729.829 618.982 750.263 628.113 806.311C637.245 862.36 618.736 895.826 591.183 915.876C563.63 935.929 537.924 964.397 528.883 1001.48C513.569 1064.26 544.699 1130.02 602.074 1159.17C666.547 1191.23 701.173 1226.34 696.645 1299.13C695.513 1317.33 703.111 1414.13 795.292 1384.87C818.574 1377.48 914.886 1327.64 973.332 1420.14C987.885 1443.17 1023.92 1465.83 1056.85 1473.87C1145.16 1495.37 1235.44 1430.31 1244.41 1340.73C1254.13 1274.45 1266.2 1243.37 1337.89 1266.52C1408.84 1289.43 1451.29 1190.75 1411.59 1140.12C1356.5 1083.07 1422.24 980.458 1443.12 894.839C1471.65 777.808 1370.81 665.821 1253.14 678.566Z" fill="#D9D9D9"/>
</g>
<g filter="url(#filter7_ddddd_851_1232)">
<path d="M1195.94 748.451C1090.05 753.907 1061 661.033 971.787 639.29C876.78 616.123 833.899 673.761 823.746 720.886C815.919 757.214 799.468 772.983 756.109 783.084C725.205 788.755 697.821 804.821 704.993 848.889C712.166 892.957 697.628 919.27 675.985 935.034C654.343 950.801 634.151 973.183 627.05 1002.34C615.021 1051.7 639.474 1103.4 684.54 1126.32C735.183 1151.53 762.381 1179.13 758.824 1236.37C757.935 1250.67 763.903 1326.78 836.31 1303.78C854.597 1297.97 930.248 1258.78 976.157 1331.51C987.588 1349.62 1015.89 1367.44 1041.76 1373.75C1111.12 1390.66 1182.04 1339.51 1189.08 1269.07C1196.72 1216.96 1206.2 1192.52 1262.51 1210.72C1318.24 1228.74 1351.58 1151.15 1320.4 1111.35C1277.13 1066.49 1328.77 985.811 1345.16 918.493C1367.58 826.478 1288.37 738.429 1195.94 748.451Z" fill="#D9D9D9"/>
</g>
<g filter="url(#filter8_ddddd_851_1232)">
<path d="M1152.61 801.729C1068.62 806.054 1045.59 732.43 974.831 715.193C899.481 696.828 865.472 742.52 857.419 779.878C851.212 808.676 838.164 821.176 803.776 829.183C779.266 833.68 757.548 846.416 763.236 881.35C768.925 916.284 757.394 937.143 740.23 949.639C723.065 962.138 707.051 979.881 701.419 1003C691.879 1042.12 711.272 1083.11 747.015 1101.28C787.179 1121.26 808.75 1143.14 805.929 1188.52C805.224 1199.86 809.957 1260.19 867.384 1241.95C881.887 1237.35 941.887 1206.29 978.297 1263.94C987.363 1278.29 1009.81 1292.42 1030.33 1297.42C1085.34 1310.83 1141.58 1270.28 1147.17 1214.44C1153.23 1173.13 1160.74 1153.76 1205.41 1168.19C1249.6 1182.47 1276.05 1120.96 1251.32 1089.41C1217 1053.85 1257.95 989.892 1270.96 936.527C1288.73 863.584 1225.91 793.785 1152.61 801.729Z" fill="#D9D9D9"/>
</g>
<g filter="url(#filter9_ddddd_851_1232)">
<path d="M1113.9 849.625C1049.49 852.945 1031.82 796.446 977.55 783.218C919.76 769.125 893.677 804.188 887.501 832.857C882.74 854.957 872.733 864.549 846.359 870.694C827.56 874.145 810.904 883.918 815.266 910.727C819.629 937.535 810.786 953.542 797.621 963.132C784.457 972.724 772.175 986.34 767.855 1004.08C760.538 1034.11 775.412 1065.56 802.825 1079.5C833.63 1094.84 850.174 1111.63 848.01 1146.45C847.469 1155.15 851.099 1201.45 895.143 1187.46C906.267 1183.92 952.283 1160.08 980.209 1204.33C987.162 1215.34 1004.38 1226.18 1020.11 1230.02C1062.31 1240.31 1105.44 1209.19 1109.73 1166.34C1114.37 1134.64 1120.14 1119.77 1154.39 1130.85C1188.29 1141.8 1208.57 1094.6 1189.61 1070.39C1163.28 1043.1 1194.69 994.022 1204.67 953.07C1218.3 897.093 1170.12 843.529 1113.9 849.625Z" fill="#D9D9D9"/>
</g>
<defs>
<filter id="filter0_dddd_851_1232" x="0" y="0" width="2008" height="2082" filterUnits="userSpaceOnUse" color-interpolation-filters="sRGB">
<feFlood flood-opacity="0" result="BackgroundImageFix"/>
<feColorMatrix in="SourceAlpha" type="matrix" values="0 0 0 0 0 0 0 0 0 0 0 0 0 0 0 0 0 0 127 0" result="hardAlpha"/>
<feOffset dx="1" dy="3"/>
<feGaussianBlur stdDeviation="4"/>
<feColorMatrix type="matrix" values="0 0 0 0 0 0 0 0 0 0 0 0 0 0 0 0 0 0 0.1 0"/>
<feBlend mode="normal" in2="BackgroundImageFix" result="effect1_dropShadow_851_1232"/>
<feColorMatrix in="SourceAlpha" type="matrix" values="0 0 0 0 0 0 0 0 0 0 0 0 0 0 0 0 0 0 127 0" result="hardAlpha"/>
<feOffset dx="5" dy="13"/>
<feGaussianBlur stdDeviation="7"/>
<feColorMatrix type="matrix" values="0 0 0 0 0 0 0 0 0 0 0 0 0 0 0 0 0 0 0.09 0"/>
<feBlend mode="normal" in2="effect1_dropShadow_851_1232" result="effect2_dropShadow_851_1232"/>
<feColorMatrix in="SourceAlpha" type="matrix" values="0 0 0 0 0 0 0 0 0 0 0 0 0 0 0 0 0 0 127 0" result="hardAlpha"/>
<feOffset dx="12" dy="30"/>
<feGaussianBlur stdDeviation="9.5"/>
<feColorMatrix type="matrix" values="0 0 0 0 0 0 0 0 0 0 0 0 0 0 0 0 0 0 0.05 0"/>
<feBlend mode="normal" in2="effect2_dropShadow_851_1232" result="effect3_dropShadow_851_1232"/>
<feColorMatrix in="SourceAlpha" type="matrix" values="0 0 0 0 0 0 0 0 0 0 0 0 0 0 0 0 0 0 127 0" result="hardAlpha"/>
<feOffset dx="21" dy="53"/>
<feGaussianBlur stdDeviation="11.5"/>
<feColorMatrix type="matrix" values="0 0 0 0 0 0 0 0 0 0 0 0 0 0 0 0 0 0 0.01 0"/>
<feBlend mode="normal" in2="effect3_dropShadow_851_1232" result="effect4_dropShadow_851_1232"/>
<feBlend mode="normal" in="SourceGraphic" in2="effect4_dropShadow_851_1232" result="shape"/>
</filter>
<filter id="filter1_ddddd_851_1232" x="83.1" y="75.1" width="1834.9" height="1914.9" filterUnits="userSpaceOnUse" color-interpolation-filters="sRGB">
<feFlood flood-opacity="0" result="BackgroundImageFix"/>
<feColorMatrix in="SourceAlpha" type="matrix" values="0 0 0 0 0 0 0 0 0 0 0 0 0 0 0 0 0 0 127 0" result="hardAlpha"/>
<feOffset dx="1" dy="3"/>
<feGaussianBlur stdDeviation="4"/>
<feColorMatrix type="matrix" values="0 0 0 0 0 0 0 0 0 0 0 0 0 0 0 0 0 0 0.1 0"/>
<feBlend mode="normal" in2="BackgroundImageFix" result="effect1_dropShadow_851_1232"/>
<feColorMatrix in="SourceAlpha" type="matrix" values="0 0 0 0 0 0 0 0 0 0 0 0 0 0 0 0 0 0 127 0" result="hardAlpha"/>
<feOffset dx="5" dy="13"/>
<feGaussianBlur stdDeviation="7"/>
<feColorMatrix type="matrix" values="0 0 0 0 0 0 0 0 0 0 0 0 0 0 0 0 0 0 0.09 0"/>
<feBlend mode="normal" in2="effect1_dropShadow_851_1232" result="effect2_dropShadow_851_1232"/>
<feColorMatrix in="SourceAlpha" type="matrix" values="0 0 0 0 0 0 0 0 0 0 0 0 0 0 0 0 0 0 127 0" result="hardAlpha"/>
<feOffset dx="12" dy="30"/>
<feGaussianBlur stdDeviation="9.5"/>
<feColorMatrix type="matrix" values="0 0 0 0 0 0 0 0 0 0 0 0 0 0 0 0 0 0 0.05 0"/>
<feBlend mode="normal" in2="effect2_dropShadow_851_1232" result="effect3_dropShadow_851_1232"/>
<feColorMatrix in="SourceAlpha" type="matrix" values="0 0 0 0 0 0 0 0 0 0 0 0 0 0 0 0 0 0 127 0" result="hardAlpha"/>
<feOffset dx="21" dy="53"/>
<feGaussianBlur stdDeviation="11.5"/>
<feColorMatrix type="matrix" values="0 0 0 0 0 0 0 0 0 0 0 0 0 0 0 0 0 0 0.01 0"/>
<feBlend mode="normal" in2="effect3_dropShadow_851_1232" result="effect4_dropShadow_851_1232"/>
<feColorMatrix in="SourceAlpha" type="matrix" values="0 0 0 0 0 0 0 0 0 0 0 0 0 0 0 0 0 0 127 0" result="hardAlpha"/>
<feOffset dx="1" dy="-5"/>
<feGaussianBlur stdDeviation="8.45"/>
<feComposite in2="hardAlpha" operator="out"/>
<feColorMatrix type="matrix" values="0 0 0 0 0 0 0 0 0 0 0 0 0 0 0 0 0 0 0.25 0"/>
<feBlend mode="normal" in2="effect4_dropShadow_851_1232" result="effect5_dropShadow_851_1232"/>
<feBlend mode="normal" in="SourceGraphic" in2="effect5_dropShadow_851_1232" result="shape"/>
</filter>
<filter id="filter2_ddddd_851_1232" x="177.1" y="171.1" width="1646.9" height="1722.9" filterUnits="userSpaceOnUse" color-interpolation-filters="sRGB">
<feFlood flood-opacity="0" result="BackgroundImageFix"/>
<feColorMatrix in="SourceAlpha" type="matrix" values="0 0 0 0 0 0 0 0 0 0 0 0 0 0 0 0 0 0 127 0" result="hardAlpha"/>
<feOffset dx="1" dy="3"/>
<feGaussianBlur stdDeviation="4"/>
<feColorMatrix type="matrix" values="0 0 0 0 0 0 0 0 0 0 0 0 0 0 0 0 0 0 0.1 0"/>
<feBlend mode="normal" in2="BackgroundImageFix" result="effect1_dropShadow_851_1232"/>
<feColorMatrix in="SourceAlpha" type="matrix" values="0 0 0 0 0 0 0 0 0 0 0 0 0 0 0 0 0 0 127 0" result="hardAlpha"/>
<feOffset dx="5" dy="13"/>
<feGaussianBlur stdDeviation="7"/>
<feColorMatrix type="matrix" values="0 0 0 0 0 0 0 0 0 0 0 0 0 0 0 0 0 0 0.09 0"/>
<feBlend mode="normal" in2="effect1_dropShadow_851_1232" result="effect2_dropShadow_851_1232"/>
<feColorMatrix in="SourceAlpha" type="matrix" values="0 0 0 0 0 0 0 0 0 0 0 0 0 0 0 0 0 0 127 0" result="hardAlpha"/>
<feOffset dx="12" dy="30"/>
<feGaussianBlur stdDeviation="9.5"/>
<feColorMatrix type="matrix" values="0 0 0 0 0 0 0 0 0 0 0 0 0 0 0 0 0 0 0.05 0"/>
<feBlend mode="normal" in2="effect2_dropShadow_851_1232" result="effect3_dropShadow_851_1232"/>
<feColorMatrix in="SourceAlpha" type="matrix" values="0 0 0 0 0 0 0 0 0 0 0 0 0 0 0 0 0 0 127 0" result="hardAlpha"/>
<feOffset dx="21" dy="53"/>
<feGaussianBlur stdDeviation="11.5"/>
<feColorMatrix type="matrix" values="0 0 0 0 0 0 0 0 0 0 0 0 0 0 0 0 0 0 0.01 0"/>
<feBlend mode="normal" in2="effect3_dropShadow_851_1232" result="effect4_dropShadow_851_1232"/>
<feColorMatrix in="SourceAlpha" type="matrix" values="0 0 0 0 0 0 0 0 0 0 0 0 0 0 0 0 0 0 127 0" result="hardAlpha"/>
<feOffset dx="1" dy="-5"/>
<feGaussianBlur stdDeviation="8.45"/>
<feComposite in2="hardAlpha" operator="out"/>
<feColorMatrix type="matrix" values="0 0 0 0 0 0 0 0 0 0 0 0 0 0 0 0 0 0 0.25 0"/>
<feBlend mode="normal" in2="effect4_dropShadow_851_1232" result="effect5_dropShadow_851_1232"/>
<feBlend mode="normal" in="SourceGraphic" in2="effect5_dropShadow_851_1232" result="shape"/>
</filter>
<filter id="filter3_ddddd_851_1232" x="260.1" y="256.1" width="1480.9" height="1552.9" filterUnits="userSpaceOnUse" color-interpolation-filters="sRGB">
<feFlood flood-opacity="0" result="BackgroundImageFix"/>
<feColorMatrix in="SourceAlpha" type="matrix" values="0 0 0 0 0 0 0 0 0 0 0 0 0 0 0 0 0 0 127 0" result="hardAlpha"/>
<feOffset dx="1" dy="3"/>
<feGaussianBlur stdDeviation="4"/>
<feColorMatrix type="matrix" values="0 0 0 0 0 0 0 0 0 0 0 0 0 0 0 0 0 0 0.1 0"/>
<feBlend mode="normal" in2="BackgroundImageFix" result="effect1_dropShadow_851_1232"/>
<feColorMatrix in="SourceAlpha" type="matrix" values="0 0 0 0 0 0 0 0 0 0 0 0 0 0 0 0 0 0 127 0" result="hardAlpha"/>
<feOffset dx="5" dy="13"/>
<feGaussianBlur stdDeviation="7"/>
<feColorMatrix type="matrix" values="0 0 0 0 0 0 0 0 0 0 0 0 0 0 0 0 0 0 0.09 0"/>
<feBlend mode="normal" in2="effect1_dropShadow_851_1232" result="effect2_dropShadow_851_1232"/>
<feColorMatrix in="SourceAlpha" type="matrix" values="0 0 0 0 0 0 0 0 0 0 0 0 0 0 0 0 0 0 127 0" result="hardAlpha"/>
<feOffset dx="12" dy="30"/>
<feGaussianBlur stdDeviation="9.5"/>
<feColorMatrix type="matrix" values="0 0 0 0 0 0 0 0 0 0 0 0 0 0 0 0 0 0 0.05 0"/>
<feBlend mode="normal" in2="effect2_dropShadow_851_1232" result="effect3_dropShadow_851_1232"/>
<feColorMatrix in="SourceAlpha" type="matrix" values="0 0 0 0 0 0 0 0 0 0 0 0 0 0 0 0 0 0 127 0" result="hardAlpha"/>
<feOffset dx="21" dy="53"/>
<feGaussianBlur stdDeviation="11.5"/>
<feColorMatrix type="matrix" values="0 0 0 0 0 0 0 0 0 0 0 0 0 0 0 0 0 0 0.01 0"/>
<feBlend mode="normal" in2="effect3_dropShadow_851_1232" result="effect4_dropShadow_851_1232"/>
<feColorMatrix in="SourceAlpha" type="matrix" values="0 0 0 0 0 0 0 0 0 0 0 0 0 0 0 0 0 0 127 0" result="hardAlpha"/>
<feOffset dx="1" dy="-5"/>
<feGaussianBlur stdDeviation="8.45"/>
<feComposite in2="hardAlpha" operator="out"/>
<feColorMatrix type="matrix" values="0 0 0 0 0 0 0 0 0 0 0 0 0 0 0 0 0 0 0.25 0"/>
<feBlend mode="normal" in2="effect4_dropShadow_851_1232" result="effect5_dropShadow_851_1232"/>
<feBlend mode="normal" in="SourceGraphic" in2="effect5_dropShadow_851_1232" result="shape"/>
</filter>
<filter id="filter4_ddddd_851_1232" x="353.1" y="351.1" width="1294.9" height="1362.9" filterUnits="userSpaceOnUse" color-interpolation-filters="sRGB">
<feFlood flood-opacity="0" result="BackgroundImageFix"/>
<feColorMatrix in="SourceAlpha" type="matrix" values="0 0 0 0 0 0 0 0 0 0 0 0 0 0 0 0 0 0 127 0" result="hardAlpha"/>
<feOffset dx="1" dy="3"/>
<feGaussianBlur stdDeviation="4"/>
<feColorMatrix type="matrix" values="0 0 0 0 0 0 0 0 0 0 0 0 0 0 0 0 0 0 0.1 0"/>
<feBlend mode="normal" in2="BackgroundImageFix" result="effect1_dropShadow_851_1232"/>
<feColorMatrix in="SourceAlpha" type="matrix" values="0 0 0 0 0 0 0 0 0 0 0 0 0 0 0 0 0 0 127 0" result="hardAlpha"/>
<feOffset dx="5" dy="13"/>
<feGaussianBlur stdDeviation="7"/>
<feColorMatrix type="matrix" values="0 0 0 0 0 0 0 0 0 0 0 0 0 0 0 0 0 0 0.09 0"/>
<feBlend mode="normal" in2="effect1_dropShadow_851_1232" result="effect2_dropShadow_851_1232"/>
<feColorMatrix in="SourceAlpha" type="matrix" values="0 0 0 0 0 0 0 0 0 0 0 0 0 0 0 0 0 0 127 0" result="hardAlpha"/>
<feOffset dx="12" dy="30"/>
<feGaussianBlur stdDeviation="9.5"/>
<feColorMatrix type="matrix" values="0 0 0 0 0 0 0 0 0 0 0 0 0 0 0 0 0 0 0.05 0"/>
<feBlend mode="normal" in2="effect2_dropShadow_851_1232" result="effect3_dropShadow_851_1232"/>
<feColorMatrix in="SourceAlpha" type="matrix" values="0 0 0 0 0 0 0 0 0 0 0 0 0 0 0 0 0 0 127 0" result="hardAlpha"/>
<feOffset dx="21" dy="53"/>
<feGaussianBlur stdDeviation="11.5"/>
<feColorMatrix type="matrix" values="0 0 0 0 0 0 0 0 0 0 0 0 0 0 0 0 0 0 0.01 0"/>
<feBlend mode="normal" in2="effect3_dropShadow_851_1232" result="effect4_dropShadow_851_1232"/>
<feColorMatrix in="SourceAlpha" type="matrix" values="0 0 0 0 0 0 0 0 0 0 0 0 0 0 0 0 0 0 127 0" result="hardAlpha"/>
<feOffset dx="1" dy="-5"/>
<feGaussianBlur stdDeviation="8.45"/>
<feComposite in2="hardAlpha" operator="out"/>
<feColorMatrix type="matrix" values="0 0 0 0 0 0 0 0 0 0 0 0 0 0 0 0 0 0 0.25 0"/>
<feBlend mode="normal" in2="effect4_dropShadow_851_1232" result="effect5_dropShadow_851_1232"/>
<feBlend mode="normal" in="SourceGraphic" in2="effect5_dropShadow_851_1232" result="shape"/>
</filter>
<filter id="filter5_ddddd_851_1232" x="431.1" y="431.1" width="1138.9" height="1202.9" filterUnits="userSpaceOnUse" color-interpolation-filters="sRGB">
<feFlood flood-opacity="0" result="BackgroundImageFix"/>
<feColorMatrix in="SourceAlpha" type="matrix" values="0 0 0 0 0 0 0 0 0 0 0 0 0 0 0 0 0 0 127 0" result="hardAlpha"/>
<feOffset dx="1" dy="3"/>
<feGaussianBlur stdDeviation="4"/>
<feColorMatrix type="matrix" values="0 0 0 0 0 0 0 0 0 0 0 0 0 0 0 0 0 0 0.1 0"/>
<feBlend mode="normal" in2="BackgroundImageFix" result="effect1_dropShadow_851_1232"/>
<feColorMatrix in="SourceAlpha" type="matrix" values="0 0 0 0 0 0 0 0 0 0 0 0 0 0 0 0 0 0 127 0" result="hardAlpha"/>
<feOffset dx="5" dy="13"/>
<feGaussianBlur stdDeviation="7"/>
<feColorMatrix type="matrix" values="0 0 0 0 0 0 0 0 0 0 0 0 0 0 0 0 0 0 0.09 0"/>
<feBlend mode="normal" in2="effect1_dropShadow_851_1232" result="effect2_dropShadow_851_1232"/>
<feColorMatrix in="SourceAlpha" type="matrix" values="0 0 0 0 0 0 0 0 0 0 0 0 0 0 0 0 0 0 127 0" result="hardAlpha"/>
<feOffset dx="12" dy="30"/>
<feGaussianBlur stdDeviation="9.5"/>
<feColorMatrix type="matrix" values="0 0 0 0 0 0 0 0 0 0 0 0 0 0 0 0 0 0 0.05 0"/>
<feBlend mode="normal" in2="effect2_dropShadow_851_1232" result="effect3_dropShadow_851_1232"/>
<feColorMatrix in="SourceAlpha" type="matrix" values="0 0 0 0 0 0 0 0 0 0 0 0 0 0 0 0 0 0 127 0" result="hardAlpha"/>
<feOffset dx="21" dy="53"/>
<feGaussianBlur stdDeviation="11.5"/>
<feColorMatrix type="matrix" values="0 0 0 0 0 0 0 0 0 0 0 0 0 0 0 0 0 0 0.01 0"/>
<feBlend mode="normal" in2="effect3_dropShadow_851_1232" result="effect4_dropShadow_851_1232"/>
<feColorMatrix in="SourceAlpha" type="matrix" values="0 0 0 0 0 0 0 0 0 0 0 0 0 0 0 0 0 0 127 0" result="hardAlpha"/>
<feOffset dx="1" dy="-5"/>
<feGaussianBlur stdDeviation="8.45"/>
<feComposite in2="hardAlpha" operator="out"/>
<feColorMatrix type="matrix" values="0 0 0 0 0 0 0 0 0 0 0 0 0 0 0 0 0 0 0.25 0"/>
<feBlend mode="normal" in2="effect4_dropShadow_851_1232" result="effect5_dropShadow_851_1232"/>
<feBlend mode="normal" in="SourceGraphic" in2="effect5_dropShadow_851_1232" result="shape"/>
</filter>
<filter id="filter6_ddddd_851_1232" x="509.1" y="511.1" width="982.9" height="1042.9" filterUnits="userSpaceOnUse" color-interpolation-filters="sRGB">
<feFlood flood-opacity="0" result="BackgroundImageFix"/>
<feColorMatrix in="SourceAlpha" type="matrix" values="0 0 0 0 0 0 0 0 0 0 0 0 0 0 0 0 0 0 127 0" result="hardAlpha"/>
<feOffset dx="1" dy="3"/>
<feGaussianBlur stdDeviation="4"/>
<feColorMatrix type="matrix" values="0 0 0 0 0 0 0 0 0 0 0 0 0 0 0 0 0 0 0.1 0"/>
<feBlend mode="normal" in2="BackgroundImageFix" result="effect1_dropShadow_851_1232"/>
<feColorMatrix in="SourceAlpha" type="matrix" values="0 0 0 0 0 0 0 0 0 0 0 0 0 0 0 0 0 0 127 0" result="hardAlpha"/>
<feOffset dx="5" dy="13"/>
<feGaussianBlur stdDeviation="7"/>
<feColorMatrix type="matrix" values="0 0 0 0 0 0 0 0 0 0 0 0 0 0 0 0 0 0 0.09 0"/>
<feBlend mode="normal" in2="effect1_dropShadow_851_1232" result="effect2_dropShadow_851_1232"/>
<feColorMatrix in="SourceAlpha" type="matrix" values="0 0 0 0 0 0 0 0 0 0 0 0 0 0 0 0 0 0 127 0" result="hardAlpha"/>
<feOffset dx="12" dy="30"/>
<feGaussianBlur stdDeviation="9.5"/>
<feColorMatrix type="matrix" values="0 0 0 0 0 0 0 0 0 0 0 0 0 0 0 0 0 0 0.05 0"/>
<feBlend mode="normal" in2="effect2_dropShadow_851_1232" result="effect3_dropShadow_851_1232"/>
<feColorMatrix in="SourceAlpha" type="matrix" values="0 0 0 0 0 0 0 0 0 0 0 0 0 0 0 0 0 0 127 0" result="hardAlpha"/>
<feOffset dx="21" dy="53"/>
<feGaussianBlur stdDeviation="11.5"/>
<feColorMatrix type="matrix" values="0 0 0 0 0 0 0 0 0 0 0 0 0 0 0 0 0 0 0.01 0"/>
<feBlend mode="normal" in2="effect3_dropShadow_851_1232" result="effect4_dropShadow_851_1232"/>
<feColorMatrix in="SourceAlpha" type="matrix" values="0 0 0 0 0 0 0 0 0 0 0 0 0 0 0 0 0 0 127 0" result="hardAlpha"/>
<feOffset dx="1" dy="-5"/>
<feGaussianBlur stdDeviation="8.45"/>
<feComposite in2="hardAlpha" operator="out"/>
<feColorMatrix type="matrix" values="0 0 0 0 0 0 0 0 0 0 0 0 0 0 0 0 0 0 0.25 0"/>
<feBlend mode="normal" in2="effect4_dropShadow_851_1232" result="effect5_dropShadow_851_1232"/>
<feBlend mode="normal" in="SourceGraphic" in2="effect5_dropShadow_851_1232" result="shape"/>
</filter>
<filter id="filter7_ddddd_851_1232" x="608.1" y="612.1" width="784.9" height="840.9" filterUnits="userSpaceOnUse" color-interpolation-filters="sRGB">
<feFlood flood-opacity="0" result="BackgroundImageFix"/>
<feColorMatrix in="SourceAlpha" type="matrix" values="0 0 0 0 0 0 0 0 0 0 0 0 0 0 0 0 0 0 127 0" result="hardAlpha"/>
<feOffset dx="1" dy="3"/>
<feGaussianBlur stdDeviation="4"/>
<feColorMatrix type="matrix" values="0 0 0 0 0 0 0 0 0 0 0 0 0 0 0 0 0 0 0.1 0"/>
<feBlend mode="normal" in2="BackgroundImageFix" result="effect1_dropShadow_851_1232"/>
<feColorMatrix in="SourceAlpha" type="matrix" values="0 0 0 0 0 0 0 0 0 0 0 0 0 0 0 0 0 0 127 0" result="hardAlpha"/>
<feOffset dx="5" dy="13"/>
<feGaussianBlur stdDeviation="7"/>
<feColorMatrix type="matrix" values="0 0 0 0 0 0 0 0 0 0 0 0 0 0 0 0 0 0 0.09 0"/>
<feBlend mode="normal" in2="effect1_dropShadow_851_1232" result="effect2_dropShadow_851_1232"/>
<feColorMatrix in="SourceAlpha" type="matrix" values="0 0 0 0 0 0 0 0 0 0 0 0 0 0 0 0 0 0 127 0" result="hardAlpha"/>
<feOffset dx="12" dy="30"/>
<feGaussianBlur stdDeviation="9.5"/>
<feColorMatrix type="matrix" values="0 0 0 0 0 0 0 0 0 0 0 0 0 0 0 0 0 0 0.05 0"/>
<feBlend mode="normal" in2="effect2_dropShadow_851_1232" result="effect3_dropShadow_851_1232"/>
<feColorMatrix in="SourceAlpha" type="matrix" values="0 0 0 0 0 0 0 0 0 0 0 0 0 0 0 0 0 0 127 0" result="hardAlpha"/>
<feOffset dx="21" dy="53"/>
<feGaussianBlur stdDeviation="11.5"/>
<feColorMatrix type="matrix" values="0 0 0 0 0 0 0 0 0 0 0 0 0 0 0 0 0 0 0.01 0"/>
<feBlend mode="normal" in2="effect3_dropShadow_851_1232" result="effect4_dropShadow_851_1232"/>
<feColorMatrix in="SourceAlpha" type="matrix" values="0 0 0 0 0 0 0 0 0 0 0 0 0 0 0 0 0 0 127 0" result="hardAlpha"/>
<feOffset dx="1" dy="-5"/>
<feGaussianBlur stdDeviation="8.45"/>
<feComposite in2="hardAlpha" operator="out"/>
<feColorMatrix type="matrix" values="0 0 0 0 0 0 0 0 0 0 0 0 0 0 0 0 0 0 0.25 0"/>
<feBlend mode="normal" in2="effect4_dropShadow_851_1232" result="effect5_dropShadow_851_1232"/>
<feBlend mode="normal" in="SourceGraphic" in2="effect5_dropShadow_851_1232" result="shape"/>
</filter>
<filter id="filter8_ddddd_851_1232" x="683.1" y="689.1" width="634.9" height="686.9" filterUnits="userSpaceOnUse" color-interpolation-filters="sRGB">
<feFlood flood-opacity="0" result="BackgroundImageFix"/>
<feColorMatrix in="SourceAlpha" type="matrix" values="0 0 0 0 0 0 0 0 0 0 0 0 0 0 0 0 0 0 127 0" result="hardAlpha"/>
<feOffset dx="1" dy="3"/>
<feGaussianBlur stdDeviation="4"/>
<feColorMatrix type="matrix" values="0 0 0 0 0 0 0 0 0 0 0 0 0 0 0 0 0 0 0.1 0"/>
<feBlend mode="normal" in2="BackgroundImageFix" result="effect1_dropShadow_851_1232"/>
<feColorMatrix in="SourceAlpha" type="matrix" values="0 0 0 0 0 0 0 0 0 0 0 0 0 0 0 0 0 0 127 0" result="hardAlpha"/>
<feOffset dx="5" dy="13"/>
<feGaussianBlur stdDeviation="7"/>
<feColorMatrix type="matrix" values="0 0 0 0 0 0 0 0 0 0 0 0 0 0 0 0 0 0 0.09 0"/>
<feBlend mode="normal" in2="effect1_dropShadow_851_1232" result="effect2_dropShadow_851_1232"/>
<feColorMatrix in="SourceAlpha" type="matrix" values="0 0 0 0 0 0 0 0 0 0 0 0 0 0 0 0 0 0 127 0" result="hardAlpha"/>
<feOffset dx="12" dy="30"/>
<feGaussianBlur stdDeviation="9.5"/>
<feColorMatrix type="matrix" values="0 0 0 0 0 0 0 0 0 0 0 0 0 0 0 0 0 0 0.05 0"/>
<feBlend mode="normal" in2="effect2_dropShadow_851_1232" result="effect3_dropShadow_851_1232"/>
<feColorMatrix in="SourceAlpha" type="matrix" values="0 0 0 0 0 0 0 0 0 0 0 0 0 0 0 0 0 0 127 0" result="hardAlpha"/>
<feOffset dx="21" dy="53"/>
<feGaussianBlur stdDeviation="11.5"/>
<feColorMatrix type="matrix" values="0 0 0 0 0 0 0 0 0 0 0 0 0 0 0 0 0 0 0.01 0"/>
<feBlend mode="normal" in2="effect3_dropShadow_851_1232" result="effect4_dropShadow_851_1232"/>
<feColorMatrix in="SourceAlpha" type="matrix" values="0 0 0 0 0 0 0 0 0 0 0 0 0 0 0 0 0 0 127 0" result="hardAlpha"/>
<feOffset dx="1" dy="-5"/>
<feGaussianBlur stdDeviation="8.45"/>
<feComposite in2="hardAlpha" operator="out"/>
<feColorMatrix type="matrix" values="0 0 0 0 0 0 0 0 0 0 0 0 0 0 0 0 0 0 0.25 0"/>
<feBlend mode="normal" in2="effect4_dropShadow_851_1232" result="effect5_dropShadow_851_1232"/>
<feBlend mode="normal" in="SourceGraphic" in2="effect5_dropShadow_851_1232" result="shape"/>
</filter>
<filter id="filter9_ddddd_851_1232" x="750.1" y="758.1" width="500.9" height="549.9" filterUnits="userSpaceOnUse" color-interpolation-filters="sRGB">
<feFlood flood-opacity="0" result="BackgroundImageFix"/>
<feColorMatrix in="SourceAlpha" type="matrix" values="0 0 0 0 0 0 0 0 0 0 0 0 0 0 0 0 0 0 127 0" result="hardAlpha"/>
<feOffset dx="1" dy="3"/>
<feGaussianBlur stdDeviation="4"/>
<feColorMatrix type="matrix" values="0 0 0 0 0 0 0 0 0 0 0 0 0 0 0 0 0 0 0.1 0"/>
<feBlend mode="normal" in2="BackgroundImageFix" result="effect1_dropShadow_851_1232"/>
<feColorMatrix in="SourceAlpha" type="matrix" values="0 0 0 0 0 0 0 0 0 0 0 0 0 0 0 0 0 0 127 0" result="hardAlpha"/>
<feOffset dx="5" dy="13"/>
<feGaussianBlur stdDeviation="7"/>
<feColorMatrix type="matrix" values="0 0 0 0 0 0 0 0 0 0 0 0 0 0 0 0 0 0 0.09 0"/>
<feBlend mode="normal" in2="effect1_dropShadow_851_1232" result="effect2_dropShadow_851_1232"/>
<feColorMatrix in="SourceAlpha" type="matrix" values="0 0 0 0 0 0 0 0 0 0 0 0 0 0 0 0 0 0 127 0" result="hardAlpha"/>
<feOffset dx="12" dy="30"/>
<feGaussianBlur stdDeviation="9.5"/>
<feColorMatrix type="matrix" values="0 0 0 0 0 0 0 0 0 0 0 0 0 0 0 0 0 0 0.05 0"/>
<feBlend mode="normal" in2="effect2_dropShadow_851_1232" result="effect3_dropShadow_851_1232"/>
<feColorMatrix in="SourceAlpha" type="matrix" values="0 0 0 0 0 0 0 0 0 0 0 0 0 0 0 0 0 0 127 0" result="hardAlpha"/>
<feOffset dx="21" dy="53"/>
<feGaussianBlur stdDeviation="11.5"/>
<feColorMatrix type="matrix" values="0 0 0 0 0 0 0 0 0 0 0 0 0 0 0 0 0 0 0.01 0"/>
<feBlend mode="normal" in2="effect3_dropShadow_851_1232" result="effect4_dropShadow_851_1232"/>
<feColorMatrix in="SourceAlpha" type="matrix" values="0 0 0 0 0 0 0 0 0 0 0 0 0 0 0 0 0 0 127 0" result="hardAlpha"/>
<feOffset dx="1" dy="-5"/>
<feGaussianBlur stdDeviation="8.45"/>
<feComposite in2="hardAlpha" operator="out"/>
<feColorMatrix type="matrix" values="0 0 0 0 0 0 0 0 0 0 0 0 0 0 0 0 0 0 0.25 0"/>
<feBlend mode="normal" in2="effect4_dropShadow_851_1232" result="effect5_dropShadow_851_1232"/>
<feBlend mode="normal" in="SourceGraphic" in2="effect5_dropShadow_851_1232" result="shape"/>
</filter>
</defs>
</svg>
